<!DOCTYPE svg PUBLIC "-//W3C//DTD SVG 1.1//EN" "http://www.w3.org/Graphics/SVG/1.1/DTD/svg11.dtd">
<!-- Uploaded to: SVG Repo, www.svgrepo.com, Transformed by: SVG Repo Mixer Tools -->
<svg fill="#1b1c1d" height="800px" width="800px" version="1.1" id="Layer_1" xmlns="http://www.w3.org/2000/svg" xmlns:xlink="http://www.w3.org/1999/xlink" viewBox="0 0 512 512" xml:space="preserve" stroke="#1b1c1d" stroke-width="0.00512">
<g id="SVGRepo_bgCarrier" stroke-width="0"/>
<g id="SVGRepo_tracerCarrier" stroke-linecap="round" stroke-linejoin="round"/>
<g id="SVGRepo_iconCarrier"> <g> <g> <path d="M508.255,490.146l-128-128c-0.06-0.06-0.137-0.077-0.196-0.128c34.193-38.434,55.142-88.917,55.142-144.418 c0-120.175-97.425-217.6-217.6-217.6S0.001,97.425,0.001,217.6s97.425,217.6,217.6,217.6c55.501,0,105.975-20.949,144.418-55.151 c0.06,0.06,0.077,0.137,0.128,0.196l128,128c2.5,2.509,5.777,3.755,9.054,3.755s6.554-1.246,9.054-3.746 C513.247,503.253,513.247,495.147,508.255,490.146z M217.601,409.6c-105.865,0-192-86.135-192-192s86.135-192,192-192 s192,86.135,192,192S323.466,409.6,217.601,409.6z"/> </g> </g> <g> <g> <path d="M217.601,58.795c-28.723,0-52.088,23.347-52.088,52.079s23.364,52.079,52.088,52.079 c28.723,0,52.096-23.356,52.096-52.079S246.324,58.795,217.601,58.795z M217.601,137.728c-14.797,0-26.837-12.049-26.837-26.846 s12.041-26.846,26.837-26.846s26.837,12.049,26.837,26.846S232.398,137.728,217.601,137.728z"/> </g> </g> <g> <g> <path d="M290.22,252.578h-7.612l-13.235-72.798c-1.775-9.754-10.274-16.828-20.198-16.828h-31.573h-31.565 c-9.924,0-18.423,7.074-20.198,16.828l-15.787,86.852c-1.084,5.999,0.529,12.126,4.437,16.802 c3.908,4.702,9.651,7.373,15.761,7.373h5.709l5.385,67.951c0.862,10.598,9.847,18.876,20.463,18.876h31.573 c10.641,0,19.627-8.277,20.463-18.876l2.236-28.126h34.133c14.14,0,25.6-11.46,25.6-25.6v-26.846 C315.82,264.038,304.359,252.578,290.22,252.578z M223.583,278.178v26.846c0,7.083,2.884,13.491,7.535,18.125l-2.099,29.252 h-22.827l-6.903-86.852h-23.364l14.063-77.372h14.985v43.298c0,6.972,5.666,12.621,12.621,12.621s12.638-5.649,12.638-12.621 v-43.298h14.985l11.699,64.401h-7.74C235.043,252.578,223.583,264.038,223.583,278.178z M290.22,305.024h-41.037v-26.846h41.037 V305.024z"/> </g> </g> </g>
</svg>